<?xml version="1.0" encoding="iso-8859-1"?>
<!-- Generator: Adobe Illustrator 18.1.1, SVG Export Plug-In . SVG Version: 6.00 Build 0)  -->
<svg version="1.1" id="Capa_1" xmlns="http://www.w3.org/2000/svg" xmlns:xlink="http://www.w3.org/1999/xlink" x="0px" y="0px"
	 viewBox="0 0 492 492" style="enable-background:new 0 0 492 492;" xml:space="preserve">
<g>
	<g>
		<path style="fill:#010002;" d="M293,435c3.333-0.667,7-1,11-1c10.667,0,21,2.333,31,7c9.334,4,19.167,6,29.5,6s20.5-2,30.5-6
			c9.333-4.667,19.333-7,30-7c9.333,0,19,2.333,29,7c10,4,19.333,6,28,6v45c-9.333,0-18.667-2.333-28-7c-10-4-20-6-30-6s-20,2-30,6
			c-9.333,4.667-19.167,7-29.5,7s-20.167-2.333-29.5-7c-10.667-4-21.167-6-31.5-6s-20.5,2-30.5,6c-9.333,4.667-19.167,7-29.5,7
			s-20.5-2.333-30.5-7c-10-4-20.167-6-30.5-6s-20.5,2-30.5,6c-10,4.667-20.167,7-30.5,7s-20.167-2.333-29.5-7c-10-4-20.333-6-31-6
			s-21,2-31,6c-9.333,4.667-19.333,7-30,7v-45c10.667,0,20.667-2,30-6c10-4.667,20.333-7,31-7s21,2.333,31,7
			c9.333,4,19.167,6,29.5,6s20.5-2,30.5-6c5.333-2.667,10.667-4.667,16-6l283-50c14-2.667,22.667-9,26-19c1.341-2,3.674-3,7-3
			c5.333,0.667,8,3.667,8,9c0,3.333-0.833,7-2.5,11s-5.5,8.333-11.5,13s-13.667,8-23,10L293,435z"/>
		<path style="fill:#010002;" d="M48,82c11.333,0,21-4,29-12s12-17.667,12-29s-4-21-12-29S59.333,0,48,0S27,4,19,12S7,29.667,7,41
			s4,21,12,29S36.667,82,48,82z"/>
		<path style="fill:#010002;" d="M167,410c0.667,4.667,3.5,8.833,8.5,12.5s10.167,5.5,15.5,5.5c7.333,0,13.5-2.5,18.5-7.5
			s7.5-11.167,7.5-18.5v-4l-31-133c-3.333-9.333-10-16-20-20l-45-27l-21-90h129c5.333,0,9.833-1.667,13.5-5
			c3.667-3.336,5.5-7.669,5.5-13c0-5.336-1.833-9.669-5.5-13c-3.667-3.333-8.167-5-13.5-5H42c-8.667,0-15.167,2.5-19.5,7.5
			S16.333,110,17,116l27,118c2,11.334,8.333,19.667,19,25h1l76,45L167,410z"/>
		<rect x="256" y="113" style="fill:#010002;" width="236" height="10"/>
	</g>
</g>
<g>
</g>
<g>
</g>
<g>
</g>
<g>
</g>
<g>
</g>
<g>
</g>
<g>
</g>
<g>
</g>
<g>
</g>
<g>
</g>
<g>
</g>
<g>
</g>
<g>
</g>
<g>
</g>
<g>
</g>
</svg>
