<?xml version="1.0" encoding="iso-8859-1"?>
<!-- Generator: Adobe Illustrator 16.0.0, SVG Export Plug-In . SVG Version: 6.00 Build 0)  -->
<!DOCTYPE svg PUBLIC "-//W3C//DTD SVG 1.1//EN" "http://www.w3.org/Graphics/SVG/1.1/DTD/svg11.dtd">
<svg version="1.1" id="Capa_1" xmlns="http://www.w3.org/2000/svg" xmlns:xlink="http://www.w3.org/1999/xlink" x="0px" y="0px"
	 width="554.648px" height="554.648px" viewBox="0 0 554.648 554.648" style="enable-background:new 0 0 554.648 554.648;"
	 xml:space="preserve">
<g>
	<g>
		<path d="M533.197,437.046l-56.515,41.76c-3.385,2.505-10.461,2.716-14.009,0.363l-49.515-32.646
			c-12.737-8.415-32.016-8.511-44.811-0.182l-50.71,32.904c-3.901,2.506-11.818,2.563-15.739,0.096l-52.69-33.277
			c-13.148-8.281-32.427-7.487-44.848,1.855l-40.937,30.829c-3.385,2.562-10.404,2.802-13.971,0.487L98.763,446.36
			c-13.34-8.674-32.627-7.517-44.829,2.677L4.849,489.975c-5.718,4.762-6.483,13.254-1.74,18.972
			c2.687,3.194,6.521,4.849,10.366,4.849c3.041,0,6.11-1.033,8.625-3.127l49.084-40.938c3.118-2.61,9.486-2.983,12.891-0.774
			l50.71,32.896c13.11,8.52,32.407,7.821,44.857-1.568l40.937-30.83c3.395-2.591,10.586-2.897,14.21-0.593l52.709,33.277
			c12.813,8.081,32.054,7.966,44.781-0.277l50.71-32.904c3.825-2.467,11.522-2.429,15.3,0.076l49.515,32.637
			c13.015,8.616,32.331,8.109,44.877-1.166l56.515-41.77c5.977-4.427,7.229-12.871,2.82-18.848
			C547.617,433.871,539.174,432.609,533.197,437.046z"/>
		<path d="M338.457,398.146l126.865-80.019c8.932-5.642,15.73-18.781,14.143-29.232C459.136,154.761,316.836,64.061,196.166,41.188
			c-10.375-1.96-15.749,4.934-11.896,14.764l131.035,334.592C319.159,400.384,329.525,403.788,338.457,398.146z"/>
		<path d="M92.203,249.516c14.506,0,26.288-11.781,26.288-26.229c0-14.506-11.781-26.288-26.288-26.288
			c-14.497,0-26.278,11.781-26.278,26.288C65.925,237.725,77.706,249.516,92.203,249.516z"/>
		<path d="M76.922,291.687l27.827,63.485c4.313,9.448,13.952,16.104,25.006,16.104h75.266l43.271,41.616
			c6.971,6.483,17.872,6.033,24.413-0.89c6.474-7.019,6.139-17.92-0.842-24.461l-49.868-47.315
			c-3.022-2.706-6.579-4.427-11.609-4.427h-50.854l-23.007-51.131h27.435c0,0,5.767-0.335,8.807-2.706l45.594-20.541
			c3.328-2.372,5.584-6.35,5.584-10.787c0-7.143-5.862-13.053-13.053-13.053c-1.827,0-3.538,0.382-4.208,0.832l-41.951,19.029
			l-73.861,0.201c-15.845,0.038-25.389,7.679-21.315,17.06C73.623,284.084,76.922,291.687,76.922,291.687z"/>
	</g>
</g>
<g>
</g>
<g>
</g>
<g>
</g>
<g>
</g>
<g>
</g>
<g>
</g>
<g>
</g>
<g>
</g>
<g>
</g>
<g>
</g>
<g>
</g>
<g>
</g>
<g>
</g>
<g>
</g>
<g>
</g>
</svg>
