<?xml version="1.0" encoding="utf-8"?>
<!-- Generator: Adobe Illustrator 16.0.4, SVG Export Plug-In . SVG Version: 6.00 Build 0)  -->
<!DOCTYPE svg PUBLIC "-//W3C//DTD SVG 1.1//EN" "http://www.w3.org/Graphics/SVG/1.1/DTD/svg11.dtd">
<svg version="1.1" id="Ebene_1" xmlns="http://www.w3.org/2000/svg" xmlns:xlink="http://www.w3.org/1999/xlink" x="0px" y="0px"
	 width="297.641px" height="99.21px" viewBox="0 542 297.641 99.21" enable-background="new 0 542 297.641 99.21"
	 xml:space="preserve">
<path d="M174.132,572.789c-0.786-0.508-1.369-0.686-2.054-0.686c-1.218,0-1.875,0.762-1.875,2.41v0.834h4.967v1.928h-4.967v10.85
	h-2.132v-10.85h-3.601v-1.928h3.601v-0.785c0-3.092,1.495-4.385,3.93-4.385c1.167,0,1.952,0.305,2.662,0.734L174.132,572.789z"/>
<path d="M182.272,586.4c2.61,0,4.105-2.205,4.105-4.664s-1.495-4.664-4.105-4.664c-2.609,0-4.105,2.205-4.105,4.664
	S179.662,586.4,182.272,586.4 M182.272,575.144c3.901,0,6.286,3.068,6.286,6.592c0,3.525-2.385,6.592-6.286,6.592
	c-3.902,0-6.287-3.066-6.287-6.592C175.985,578.212,178.369,575.144,182.272,575.144"/>
<path d="M200.062,579.404c-0.178-1.471-0.938-2.33-2.458-2.33c-2.229,0-4.334,2.102-4.334,6.438v4.613h-2.13v-12.777h2.13v2.359
	c0.988-1.547,2.584-2.562,4.714-2.562c2.536,0,4.057,1.521,4.209,4.26H200.062z"/>
<polygon fill="#D57A75" points="66.909,569.572 66.909,570.267 66.909,614.337 70.595,614.337 71.625,614.337 72.504,614.337 
	72.504,569.572 "/>
<g>
	<path fill="#CE5A4E" d="M89.102,618.535c0.384,0,0.89-0.348,0.89-0.729v-52.43c0-0.383-0.506-0.699-0.89-0.699H71.625
		c-0.384,0-0.52,0.158-0.52,0.35v1.049v3.494c0,0.385,0.136,0.703,0.52,0.703h11.884c0.385,0,0.888,0.311,0.888,0.695v41.248
		c0,0.383-0.503,0.725-0.888,0.725H71.625c-0.384,0-0.52,0.131-0.52,0.324v1.047v3.496c0,0.383,0.136,0.73,0.52,0.73h17.478
		L89.102,618.535L89.102,618.535z"/>
</g>
<polygon fill="#8BBD97" points="96.986,569.572 96.986,570.267 96.986,614.337 101.684,614.337 102.582,614.337 102.582,569.572 "/>
<g>
	<path fill="#4EA15A" d="M101.882,618.503v-5.592c7.694,0,13.062-9.566,13.062-21.322c0-11.758-5.368-21.322-13.062-21.322v-5.594
		c10.492,0,18.656,12.074,18.656,26.916C120.538,606.429,112.374,618.503,101.882,618.503"/>
	<path fill="#33A1DF" d="M43.827,601.306v7.713v2.48c0,4.186,2.678,7.035,6.908,7.035h1.189h3.426h4.04
		c0.192,0,0.523-0.348,0.523-0.729v-4.197c0-0.383-0.489-0.672-0.873-0.672h-4.018h-2.05h-1.271c-1.811,0-2.282-0.77-2.282-2.838
		v-1.229v-6.729v-4.104c0-4.219-1.715-5.771-3.803-6.537c2.088-0.762,3.803-2.314,3.803-6.529v-2.914v-7.395v-1.754
		c0-2.033,0.405-2.641,2.282-2.641h1.58h2.004h4.103c0.192,0,0.523-0.316,0.523-0.701v-4.195c0-0.383-0.489-0.697-0.873-0.697h-3.36
		h-3.17h-1.773c-4.23,0-6.908,2.74-6.908,6.834v2.195v9.146c0,0-0.14,2.1-0.24,2.814c-0.266,1.891-2.582,3.51-4.018,3.49h-2.198
		c-0.386,0-0.539,0.301-0.539,0.686v4.195c0,0.383,0.153,0.715,0.539,0.715h2.008c1.832-0.025,4.146,1.518,4.321,3.818
		C43.753,599.24,43.827,601.306,43.827,601.306"/>
	<path fill="#BD3C38" d="M71.625,564.675h-1.981H67.43c-0.385,0-0.521,0.316-0.521,0.699v1.291v2.902v0.703h0.521h4.194h0.88v-0.703
		v-4.193v-0.699H71.625z"/>
	<path fill="#BD3C38" d="M66.909,613.611v1.98v2.213c0,0.385,0.137,0.73,0.521,0.73h1.292h2.902h0.879v-0.73v-4.193v-0.672h-0.879
		H67.43h-0.521V613.611z"/>
	<path fill="#27954E" d="M101.684,564.675h-1.98H97.49c-0.385,0-0.505,0.316-0.505,0.699v1.291v2.902v0.703h0.505h4.193h0.897
		v-0.703v-4.193v-0.699H101.684z"/>
	<path fill="#27954E" d="M96.986,613.611v1.98v2.213c0,0.385,0.12,0.73,0.505,0.73h1.29h2.903h0.897v-0.73v-4.193v-0.672h-0.897
		H97.49h-0.505V613.611z"/>
	<path fill="#7BBBB7" d="M131.959,601.306v7.713v2.48c0,4.186,2.627,7.035,6.858,7.035h1.189h3.426h4.04
		c0.192,0,0.572-0.348,0.572-0.729v-4.197c0-0.383-0.538-0.672-0.922-0.672h-4.019h-2.05h-1.269c-1.811,0-2.232-0.77-2.232-2.838
		v-1.229v-6.729v-4.104c0-1.357-0.398-2.586-0.708-3.287h-9.388c2.579,0.701,3.682,1.623,4.207,3.869
		C131.929,599.74,131.959,601.306,131.959,601.306"/>
	<path fill="#7BBBB7" d="M131.562,585.666c-0.542,1.832-1.751,2.793-3.91,3.492h8.808c0.547-1.398,1.097-2.332,1.097-4.184v-2.914
		v-7.393v-1.756c0-2.033,0.354-2.641,2.232-2.641h1.579h2.003h4.104c0.192,0,0.572-0.316,0.572-0.701v-4.195
		c0-0.383-0.538-0.699-0.922-0.699h-3.359h-3.172h-1.774c-4.231,0-6.858,2.742-6.858,6.836v2.195v9.146
		C131.959,582.853,131.833,584.751,131.562,585.666"/>
	<path fill="#9AC9C6" d="M132.924,592c1.416,0.52,2.97,1.354,3.924,2.752h10.275c0.385,0,0.923-0.332,0.923-0.715v-4.195
		c0-0.385-0.538-0.686-0.923-0.686h-10.664C135.759,590.556,134.096,591.57,132.924,592"/>
	<path fill="#42A5A5" d="M125.453,589.158c-0.386,0-0.489,0.301-0.489,0.686v4.195c0,0.385,0.104,0.717,0.489,0.717h2.007h9.388
		c-0.631-1.4-2.196-2.357-3.313-2.793c1.172-0.43,2.226-1.404,2.926-2.803h-8.809L125.453,589.158L125.453,589.158z"/>
</g>
<rect x="161.604" y="591.5" fill="#CE5A4E" width="101.677" height="30.932"/>
<g>
	<path fill="#FFFFFF" d="M192.097,611.32c-0.545,1.191-1.736,1.736-2.994,1.736c-2.586,0-4.815-1.975-4.815-6.092
		s2.229-6.09,4.917-6.09c2.348,0,3.743,1.514,4.271,3.623l-1.412,0.426c-0.527-1.734-1.361-2.619-2.858-2.619
		c-2.024,0-3.369,1.412-3.369,4.66c0,3.25,1.345,4.662,3.369,4.662c1.633,0,2.518-1.174,2.671-3.283h-2.671v-1.43h4.219v6.006
		h-1.241L192.097,611.32z"/>
	<path fill="#FFFFFF" d="M196.279,604.345h4.049v7.316h3.165v1.258h-7.554v-1.258h2.96v-6.057h-2.62V604.345z M199.511,600.875
		c0.664,0,1.174,0.527,1.174,1.191c0,0.646-0.51,1.156-1.174,1.156c-0.646,0-1.174-0.51-1.174-1.156
		C198.337,601.402,198.865,600.875,199.511,600.875z"/>
	<path fill="#FFFFFF" d="M214.088,608.939h-6.703c0.085,1.701,1.122,2.824,2.637,2.824c1.294,0,2.178-0.629,2.757-1.701l1.14,0.596
		c-0.937,1.803-2.297,2.398-3.896,2.398c-2.501,0-4.101-1.922-4.101-4.424c0-2.416,1.531-4.424,4.101-4.424
		c2.654,0,4.066,1.889,4.066,4.135V608.939z M207.488,607.646h5.086c-0.255-1.361-1.156-2.145-2.552-2.145
		C208.644,605.501,207.777,606.353,207.488,607.646z"/>
	<path fill="#FFFFFF" d="M216.347,605.775h0.852v-1.447c0-2.312,1.48-3.453,3.215-3.453c2.145,0,3.165,1.361,3.165,3.045
		c0,1.311-0.681,2.109-1.531,2.365c1.241,0.238,2.331,1.207,2.331,3.029c0,2.533-1.446,3.742-3.658,3.742
		c-0.596,0-0.918-0.051-1.208-0.119v-1.293c0.341,0.068,0.698,0.119,1.106,0.119c1.496,0,2.33-0.801,2.33-2.348
		c0-1.566-0.918-2.348-2.398-2.348h-0.596v-1.293h0.596c1.225,0,1.667-0.766,1.667-1.805c0-1.174-0.731-1.803-1.804-1.803
		c-1.088,0-1.786,0.783-1.786,2.211v8.541h-1.429v-5.852h-0.852V605.775z"/>
	<path fill="#FFFFFF" d="M235.178,608.939h-6.703c0.085,1.701,1.122,2.824,2.637,2.824c1.294,0,2.178-0.629,2.757-1.701l1.14,0.596
		c-0.937,1.803-2.297,2.398-3.896,2.398c-2.501,0-4.101-1.922-4.101-4.424c0-2.416,1.531-4.424,4.101-4.424
		c2.654,0,4.066,1.889,4.066,4.135V608.939z M228.577,607.646h5.086c-0.255-1.361-1.156-2.145-2.552-2.145
		C229.734,605.501,228.866,606.353,228.577,607.646z"/>
	<path fill="#FFFFFF" d="M245.144,612.919h-1.428v-5.664c0-1.191-0.562-1.754-1.583-1.754c-1.345,0-2.519,1.463-2.519,3.965v3.453
		h-1.429v-8.574h1.429v1.582c0.613-0.986,1.686-1.719,2.91-1.719c1.786,0,2.619,1.09,2.619,2.74V612.919z"/>
</g>
</svg>
