<?xml version="1.0" encoding="utf-8"?>
<!-- Generator: Adobe Illustrator 16.0.0, SVG Export Plug-In . SVG Version: 6.00 Build 0)  -->
<!DOCTYPE svg PUBLIC "-//W3C//DTD SVG 1.1//EN" "http://www.w3.org/Graphics/SVG/1.1/DTD/svg11.dtd">
<svg version="1.1" xmlns="http://www.w3.org/2000/svg" xmlns:xlink="http://www.w3.org/1999/xlink" x="0px" y="0px" width="500px"
	 height="500px" viewBox="0 0 500 500" enable-background="new 0 0 500 500" xml:space="preserve">
<g id="Ebene_2">
</g>
<g id="Ebene_1">
	<g>
		<g>
			<polygon fill="#FF8282" points="166.725,142.867 166.725,145.056 166.725,283.742 178.326,283.742 181.566,283.742 
				184.334,283.742 184.334,142.867 			"/>
			<g>
				<path fill="#FF645F" d="M236.568,296.951c1.207,0,2.799-1.088,2.799-2.291V129.651c0-1.206-1.592-2.194-2.799-2.194h-55.002
					c-1.209,0-1.633,0.491-1.633,1.099v3.298v11c0,1.212,0.424,2.212,1.633,2.212h37.396c1.215,0,2.797,0.979,2.797,2.189v129.8
					c0,1.212-1.582,2.286-2.797,2.286h-37.396c-1.209,0-1.633,0.41-1.633,1.016v3.3v11.004c0,1.203,0.424,2.291,1.633,2.291H236.568
					z"/>
			</g>
			<polygon fill="#8CDBA6" points="261.379,142.867 261.379,145.056 261.379,283.742 276.164,283.742 278.99,283.742 
				278.99,142.867 			"/>
			<g>
				<path fill="#21D68F" d="M276.789,296.854v-17.601c24.215,0,41.113-30.099,41.113-67.096c0-36.998-16.898-67.102-41.113-67.102
					v-17.603c33.021,0,58.715,38,58.715,84.704C335.504,258.858,309.811,296.854,276.789,296.854"/>
				<path fill="#00ABFA" d="M94.082,242.738v24.272v7.806c0,13.168,8.428,22.135,21.748,22.135h3.742h10.777h12.717
					c0.609,0,1.646-1.088,1.646-2.291v-13.204c0-1.203-1.535-2.115-2.748-2.115h-12.641h-6.451h-3.992
					c-5.701,0-7.184-2.693-7.184-9.202v-10.376v-14.397v-12.909c0-13.278-5.4-18.165-11.971-20.568
					c6.57-2.401,11.971-7.283,11.971-20.552v-9.17v-23.268v-5.527c0-6.394,1.275-8.303,7.184-8.303h4.971h6.307h12.908
					c0.609,0,1.646-1.003,1.646-2.215v-13.2c0-1.208-1.535-2.196-2.748-2.196h-10.572h-9.982h-5.58
					c-13.32,0-21.748,8.624-21.748,21.507v6.908v28.787c0,0-0.436,6.607-0.754,8.855c-0.832,5.952-8.127,11.049-12.641,10.982H73.77
					c-1.209,0-1.697,0.95-1.697,2.16v13.195c0,1.214,0.488,2.256,1.697,2.256h6.318c5.762-0.079,13.045,4.775,13.598,12.022
					C93.85,236.229,94.082,242.738,94.082,242.738"/>
				<path fill="#BD3B38" d="M181.566,127.457h-6.238h-6.963c-1.207,0-1.641,0.988-1.641,2.198v4.063v9.135v2.215h1.641h13.201h2.773
					v-2.215v-13.198v-2.198H181.566z"/>
				<path fill="#BD3B38" d="M166.725,281.456v6.237v6.967c0,1.203,0.434,2.291,1.641,2.291h4.068h9.133h2.768v-2.291v-13.204v-2.115
					h-2.768h-13.201h-1.641V281.456z"/>
				<path fill="#00B05C" d="M276.164,127.457h-6.234h-6.965c-1.209,0-1.586,0.988-1.586,2.198v4.063v9.135v2.215h1.586h13.199h2.826
					v-2.215v-13.198v-2.198H276.164z"/>
				<path fill="#00B05C" d="M261.379,281.456v6.237v6.967c0,1.203,0.377,2.291,1.586,2.291h4.064h9.135h2.826v-2.291v-13.204v-2.115
					h-2.826h-13.199h-1.586V281.456z"/>
				<path fill="#78CCC7" d="M368.443,242.738v24.272v7.806c0,13.168,8.268,22.135,21.586,22.135h3.744h10.781h12.713
					c0.605,0,1.805-1.088,1.805-2.291v-13.204c0-1.203-1.695-2.115-2.908-2.115h-12.639h-6.453h-3.994
					c-5.691,0-7.023-2.422-7.023-8.932v-3.867v-21.177v-12.909c0-4.274-1.252-8.146-2.229-10.348h-29.541
					c8.111,2.202,11.584,5.11,13.24,12.178C368.35,237.802,368.443,242.738,368.443,242.738"/>
				<path fill="#78CCC7" d="M367.193,193.508c-1.703,5.766-5.508,8.791-12.305,10.989h27.719c1.719-4.399,3.447-7.336,3.447-13.162
					v-9.166v-23.271v-5.527c0-6.394,1.115-8.303,7.023-8.303h4.973h6.299h12.918c0.605,0,1.805-1.003,1.805-2.215v-13.2
					c0-1.208-1.695-2.2-2.908-2.2h-10.568h-9.979h-5.588c-13.318,0-21.586,8.628-21.586,21.511v6.914v28.781
					C368.443,184.659,368.047,190.635,367.193,193.508"/>
				<path fill="#96DBD6" d="M371.479,213.44c4.455,1.637,9.346,4.267,12.348,8.668h32.338c1.213,0,2.908-1.042,2.908-2.252v-13.199
					c0-1.21-1.695-2.16-2.908-2.16h-33.557C380.404,208.9,375.168,212.097,371.479,213.44"/>
				<path fill="#40A6A6" d="M347.971,204.497c-1.213,0-1.541,0.95-1.541,2.16v13.202c0,1.207,0.328,2.249,1.541,2.249h6.314h29.541
					c-1.982-4.401-6.91-7.415-10.428-8.787c3.689-1.351,7.006-4.42,9.209-8.824h-27.719H347.971z"/>
			</g>
		</g>
		<g>
			<g>
				<g>
					<path fill="#1E1E1C" d="M108.401,338.172c-1.867-1.201-3.249-1.621-4.87-1.621c-2.885,0-4.443,1.804-4.443,5.713v1.978h11.773
						v4.57H99.088v25.72h-5.053v-25.72h-8.533v-4.57h8.533v-1.861c0-7.333,3.544-10.398,9.314-10.398
						c2.766,0,4.627,0.726,6.312,1.746L108.401,338.172z"/>
					<path fill="#1E1E1C" d="M127.696,370.443c6.191,0,9.739-5.228,9.739-11.055c0-5.829-3.548-11.057-9.739-11.057
						c-6.189,0-9.731,5.228-9.731,11.057C117.965,365.216,121.507,370.443,127.696,370.443 M127.696,343.761
						c9.253,0,14.903,7.272,14.903,15.628c0,8.352-5.65,15.622-14.903,15.622c-9.251,0-14.901-7.271-14.901-15.622
						C112.795,351.033,118.445,343.761,127.696,343.761"/>
					<path fill="#1E1E1C" d="M169.869,353.858c-0.418-3.485-2.221-5.526-5.826-5.526c-5.287,0-10.274,4.985-10.274,15.264v10.936
						h-5.048v-30.29h5.048v5.59c2.346-3.668,6.126-6.073,11.175-6.073c6.012,0,9.615,3.609,9.979,10.101H169.869z"/>
				</g>
			</g>
			<g>
				<path fill="#1E1E1C" d="M218.627,368.641c-1.926,4.208-6.131,6.134-10.574,6.134c-9.135,0-17.008-6.974-17.008-21.521
					c0-14.538,7.873-21.512,17.367-21.512c8.289,0,13.223,5.345,15.082,12.801l-4.988,1.501c-1.862-6.13-4.807-9.256-10.094-9.256
					c-7.154,0-11.902,4.99-11.902,16.466c0,11.481,4.748,16.469,11.902,16.469c5.768,0,8.893-4.148,9.436-11.603h-9.436v-5.048
					h14.901v21.215h-4.386L218.627,368.641z"/>
				<path fill="#1E1E1C" d="M233.738,355.661h17.967c-0.9-4.812-4.088-7.575-9.01-7.575
					C237.83,348.086,234.764,351.091,233.738,355.661 M257.055,360.226h-23.678c0.303,6.009,3.971,9.973,9.318,9.973
					c4.562,0,7.693-2.222,9.734-6.01l4.023,2.101c-3.303,6.379-8.109,8.485-13.758,8.485c-8.838,0-14.483-6.798-14.483-15.632
					c0-8.532,5.403-15.621,14.483-15.621c9.371,0,14.359,6.667,14.359,14.603V360.226z"/>
				<path fill="#1E1E1C" d="M283.45,353.616c-0.419-3.49-2.222-5.53-5.825-5.53c-5.289,0-10.276,4.986-10.276,15.264v10.938h-5.048
					v-30.285h5.048v5.589c2.344-3.667,6.126-6.069,11.175-6.069c6.014,0,9.616,3.602,9.979,10.095H283.45z"/>
				<path fill="#1E1E1C" d="M324.488,374.287h-5.044v-21.512c0-3.305-0.965-4.626-3.312-4.626c-2.878,0-5.344,3.421-5.344,11.896
					v14.242h-5.05v-21.512c0-3.305-0.959-4.626-3.306-4.626c-2.882,0-5.346,3.421-5.346,11.896v14.242h-5.05v-30.285h5.05v3.846
					c1.562-2.521,3.971-4.326,7.094-4.326c3.42,0,5.404,1.921,6.247,4.926c1.56-2.886,4.27-4.926,7.452-4.926
					c3.725,0,6.607,2.402,6.607,8.175V374.287z"/>
				<path fill="#1E1E1C" d="M340.23,370.205c3.906,0,9.682-2.404,9.682-9.258v-0.957h-6.615c-5.17,0-8.053,2.157-8.053,5.584
					C335.244,368.459,337.229,370.205,340.23,370.205 M354.956,374.287h-4.089l-0.721-4.265c-1.922,2.767-6.188,4.752-10.695,4.752
					c-5.049,0-9.381-3.01-9.381-9.2c0-6.732,5.412-9.913,13.709-9.913h6.133v-1.328c0-4.688-3.311-6.247-6.975-6.247
					c-3.548,0-6.191,2.224-7.154,5.168l-4.444-1.2c1.38-5.287,6.067-8.532,11.599-8.532c7.088,0,12.019,3.301,12.019,11.658V374.287
					z"/>
				<path fill="#1E1E1C" d="M387.035,374.287h-5.05v-20.01c0-4.21-1.981-6.191-5.591-6.191c-4.747,0-8.893,5.168-8.893,14.007
					v12.194h-5.045v-30.285h5.045v5.589c2.163-3.489,5.949-6.069,10.278-6.069c6.308,0,9.255,3.847,9.255,9.675V374.287z"/>
				<polygon fill="#1E1E1C" points="414.451,344.002 405.502,366.176 395.346,344.002 389.699,344.002 402.795,372.245 
					396.908,386.547 401.955,386.547 419.928,344.002 				"/>
			</g>
		</g>
	</g>
</g>
</svg>
